<svg xmlns="http://www.w3.org/2000/svg" width="1812" height="293" shape-rendering="geometricPrecision" text-rendering="geometricPrecision" image-rendering="optimizeQuality" fill-rule="evenodd" clip-rule="evenodd"><defs><style>.fil1{fill:#008dd2}</style></defs><g id="Layer_x0020_1"><g id="_1484201016768"><path d="M563 135h1l35-38h31l-39 40 33 46h10v30h-19v-18h-14l-28-40-10 10v30h-26V97h26v38zm111 25h23l-10-30-1-10h-1l-1 10-10 30zm-5 18l-6 17h-27l37-98h26l36 98h-27l-5-17h-34zm76-18h26c0 8 2 13 7 15s9 3 14 3 9 0 13-2 6-5 6-10-1-9-4-10c-3-2-7-2-11-2h-14v-17h11c3 0 6-1 9-2 3-2 5-5 5-9 0-5-2-9-6-10-4-2-7-2-11-2-5 0-9 1-12 3s-5 7-5 13h-25c0-7 1-14 4-19 3-6 8-10 14-12 7-3 14-4 24-4h3c11 0 19 1 25 4s10 6 13 10c2 4 3 8 3 13 0 7-1 12-5 15-3 3-7 5-12 6v1c6 0 11 3 15 7 5 4 7 9 7 17 0 9-3 15-8 19s-10 7-17 8c-6 2-13 2-20 2-9 0-17 0-24-2-6-2-12-6-17-11-4-6-7-13-8-24zm144 0h22l-10-30-1-10h-1l-1 10-9 30zm-6 18l-5 17h-27l36-98h26l36 98h-27l-5-17h-34zm109-43l35-38h31l-39 40 34 46h9v30h-19v-18h-14l-28-40-9 10v30h-26V97h26v38zm104-16h-28V97h83v22h-29v76h-26v-76zm100 16h47v20h-47v18h55v22h-81V97h80v22h-54v16zm65 60v-22c3 0 5 1 7 1 4 0 7-1 9-2s4-5 5-9c1-5 2-12 2-22V97h76v98h-26v-76h-26v34c0 9-1 17-3 23-1 6-5 11-10 14-5 4-13 6-22 6-6 0-10 0-12-1zm152-60h47v20h-47v18h55v22h-81V97h80v22h-54v16zm101 0h1l35-38h30l-39 40 43 58h-33l-27-40-10 10v30h-26V97h26v38zm97 11c0 7 2 13 3 17 2 5 5 8 8 10 4 2 8 3 12 3 6 0 11-2 14-5s6-6 7-11c1-4 2-9 2-14s-1-10-2-14-4-8-7-11-8-4-14-4c-4 0-8 1-12 2-3 2-6 5-8 10-1 4-3 10-3 17zm23 52c-6 0-13-1-20-3-8-3-15-7-21-15s-9-19-9-34 3-26 9-34 13-13 21-15c7-2 14-3 20-3s13 1 21 3c7 2 14 7 20 15s10 19 10 34-4 26-10 34-13 12-20 15c-8 2-15 3-21 3zm115-3l-24-75v75h-24V97h36l18 58 1 12h1l2-11 17-59h36v98h-24v-75l-23 75h-16z" fill="#008dd2"/><path class="fil1" d="M292 0c57 0 106 32 131 78-12-14-28-27-52-34-19-24-98-41-151-25 17-10 44-20 72-19zm134 86c9 18 14 39 14 61 0 3-1 6-1 9-3-13-19-31-38-37l-1-9c-31-24-117-66-222-56l10-10c100-11 197 11 238 42zM204 30c5-4 10-8 16-11-6 3-11 7-16 11zm235 128c-2 22-8 42-18 60-6-15-21-27-30-31l4-10c-34-33-119-78-243-74 3-9 7-18 12-27-3 4-5 10-8 17 126-5 213 21 283 65zm-20 62c-9 17-22 31-37 43-4-8-13-19-24-26l5-5c-46-39-124-77-218-80v-11c121 3 202 31 274 79zm-43 47c-17 12-37 20-59 24-1-6-5-13-14-20l8-2c-20-18-61-54-155-68-4-9-7-19-8-29 1 6 2 12 4 18 114 7 155 34 224 77zm-67 25c-5 1-11 1-17 1-32 0-55-9-72-19 14 3 34 8 34 4-4-12-44-27-66-28-3-4-6-7-9-11 45 7 97 21 130 53zm-131-53c-1-2-3-4-5-7 2 3 4 5 5 7zm-33-98c1-9 2-17 4-26-2 8-3 18-4 26zm27-79c2-2 4-5 6-8-2 3-4 6-6 8z"/><path class="fil1" d="M147 0c27 0 51 7 73 19-12 7-23 15-32 25H43C69 17 106 0 147 0zm31 54c-9 12-17 25-22 39H10c6-14 14-27 23-39h145zm-26 49c-4 12-6 25-7 38H0c0-13 3-26 7-38h145zm-7 49c1 13 3 26 7 38H7c-4-12-6-25-7-38h145zm11 49c5 14 13 27 22 38H33c-9-11-17-24-23-38h146zm32 49c10 9 20 17 32 24-22 12-46 19-73 19-41 0-77-16-104-43h145z"/></g></g></svg>